<svg xmlns="http://www.w3.org/2000/svg" width="1839" height="2000" viewBox="0 0 1839 2000" version="1.1"><path d="M 374.817 346.264 C 372.792 348.594, 369.642 352.104, 367.817 354.064 C 363.243 358.979, 353.417 370.201, 351.025 373.241 L 349.050 375.752 356.275 381.910 C 360.249 385.297, 365.075 389.529, 367 391.314 C 368.925 393.100, 373.396 397.022, 376.936 400.030 C 380.476 403.039, 386.032 407.975, 389.282 411 C 392.533 414.025, 395.937 416.914, 396.846 417.420 C 397.756 417.926, 399.400 419.333, 400.500 420.547 C 401.600 421.761, 406.550 426.200, 411.500 430.412 C 416.450 434.625, 422.075 439.531, 424 441.316 C 425.925 443.100, 430.397 447.022, 433.938 450.030 C 437.478 453.039, 441.130 456.175, 442.053 457 C 442.975 457.825, 446.153 460.653, 449.115 463.284 C 452.077 465.916, 455.850 469.317, 457.500 470.843 C 459.150 472.369, 463.628 476.291, 467.451 479.559 C 471.275 482.826, 475.160 486.175, 476.085 487 C 477.010 487.825, 480.611 490.975, 484.085 494 C 487.560 497.025, 492.596 501.534, 495.276 504.019 L 500.148 508.539 481.324 527.608 C 470.971 538.097, 443.600 565.924, 420.500 589.447 C 397.400 612.970, 370.063 640.775, 359.750 651.236 L 341 670.255 341.006 754.878 L 341.012 839.500 348.256 847.267 C 356.287 855.877, 368.134 868.714, 371.996 872.991 C 373.373 874.517, 377.711 879.305, 381.636 883.632 C 385.560 887.960, 390.960 893.933, 393.636 896.907 C 396.311 899.881, 399.850 903.748, 401.500 905.501 C 403.150 907.253, 408.100 912.646, 412.500 917.485 C 416.900 922.324, 421.063 926.862, 421.750 927.570 L 423 928.857 423 1088.266 L 423 1247.675 427.250 1251.774 C 429.587 1254.028, 434.425 1259.149, 438 1263.154 C 441.575 1267.159, 446.882 1273.019, 449.792 1276.177 C 452.703 1279.334, 457.468 1284.524, 460.381 1287.709 C 469.109 1297.251, 476.768 1305.577, 482.459 1311.709 C 485.415 1314.894, 489.717 1319.750, 492.018 1322.500 C 494.320 1325.250, 498.070 1329.218, 500.352 1331.317 C 502.633 1333.416, 511.961 1342.416, 521.081 1351.317 C 530.200 1360.218, 545.275 1374.874, 554.581 1383.888 C 563.886 1392.901, 578.964 1407.526, 588.087 1416.388 C 597.211 1425.249, 612.511 1440.101, 622.087 1449.391 C 631.664 1458.682, 646.772 1473.419, 655.659 1482.141 L 671.818 1498 917.086 1498 L 1162.353 1498 1183.926 1476.658 C 1195.792 1464.920, 1225.711 1435.332, 1250.413 1410.908 C 1321.766 1340.357, 1344.225 1318, 1343.743 1318 C 1343.496 1318, 1349.770 1311.475, 1357.686 1303.500 C 1365.601 1295.525, 1371.948 1289.001, 1371.789 1289.002 C 1371.630 1289.003, 1380.837 1279.446, 1392.250 1267.764 L 1413 1246.525 1413 1087.420 L 1413 928.314 1421.657 919.657 C 1426.419 914.896, 1430.077 911, 1429.787 911 C 1429.497 911, 1434.152 906.050, 1440.133 900 C 1446.113 893.950, 1450.838 889, 1450.634 889 C 1450.288 889, 1454.668 884.467, 1481.798 856.750 C 1487.585 850.837, 1492.008 846, 1491.626 846 C 1491.245 846, 1492.523 844.541, 1494.466 842.757 L 1498 839.514 1498 754.658 L 1498 669.802 1494.750 666.820 C 1492.962 665.179, 1484.075 656.602, 1475 647.760 C 1465.925 638.918, 1451.036 624.442, 1441.913 615.592 C 1432.790 606.741, 1417.715 592.116, 1408.413 583.092 C 1399.111 574.067, 1384.035 559.442, 1374.911 550.592 C 1332.614 509.561, 1333.038 510, 1335.750 510 C 1336.163 510, 1338.379 508.313, 1340.675 506.250 C 1342.970 504.188, 1347.221 500.475, 1350.120 498 C 1353.019 495.525, 1356.627 492.375, 1358.136 491 C 1359.645 489.625, 1363.245 486.475, 1366.136 484 C 1369.027 481.525, 1372.627 478.375, 1374.136 477 C 1375.645 475.625, 1379.237 472.475, 1382.118 470 C 1386.721 466.045, 1397.409 456.718, 1407.908 447.494 C 1409.782 445.847, 1412.482 443.444, 1413.908 442.152 C 1415.334 440.861, 1419.152 437.486, 1422.392 434.652 C 1425.633 431.819, 1429.057 428.825, 1430 428 C 1430.943 427.175, 1434.543 424.025, 1438 421 C 1441.457 417.975, 1445.057 414.825, 1446 414 C 1446.943 413.175, 1450.543 410.025, 1454 407 C 1457.457 403.975, 1461.233 400.678, 1462.392 399.674 C 1463.552 398.670, 1465.859 396.645, 1467.519 395.174 C 1469.180 393.703, 1474.355 389.152, 1479.019 385.059 C 1483.684 380.967, 1488.092 377.096, 1488.816 376.457 L 1490.133 375.296 1485.316 369.991 C 1480.516 364.703, 1476.640 360.331, 1470 352.710 C 1468.075 350.501, 1465.037 347.118, 1463.249 345.192 L 1459.998 341.692 1458.249 343.177 C 1451.195 349.167, 1415.070 380.736, 1413.356 382.409 C 1412.177 383.559, 1408.852 386.525, 1405.968 389 C 1403.083 391.475, 1399.489 394.625, 1397.982 396 C 1395.598 398.175, 1392.307 401.037, 1383.392 408.690 C 1379.461 412.066, 1369.513 420.794, 1366.908 423.152 C 1363.624 426.127, 1361.865 427.674, 1336.959 449.500 C 1325.661 459.400, 1314.020 469.525, 1311.089 472 C 1308.158 474.475, 1304.518 477.625, 1303 479 C 1301.483 480.375, 1297.883 483.525, 1295 486 C 1292.117 488.475, 1288.518 491.625, 1287.002 493 C 1285.486 494.375, 1283.062 496.512, 1281.615 497.750 L 1278.985 500 1131.729 500 L 984.474 500 979.718 509.250 C 972.793 522.718, 959.422 548.475, 951.296 564 C 937.777 589.829, 931.666 601.586, 924.355 615.835 C 920.310 623.719, 917 629.545, 917 628.781 C 917 628.017, 915.669 625.293, 914.042 622.728 C 912.415 620.162, 909.673 614.674, 907.949 610.532 C 906.224 606.389, 904.379 603, 903.848 603 C 903.317 603, 903.160 602.550, 903.500 602 C 903.840 601.450, 903.566 601, 902.892 601 C 902.218 601, 901.946 600.721, 902.287 600.380 C 902.883 599.783, 897.433 588.026, 896.085 587 C 895.723 586.725, 893.701 582.675, 891.591 578 C 889.481 573.325, 887.247 569.169, 886.627 568.765 C 886.007 568.361, 885.823 568.024, 886.218 568.015 C 886.612 568.007, 879.249 552.700, 869.854 534 L 852.773 500 706.075 500 L 559.377 500 557.439 498.204 C 556.372 497.217, 551.225 492.684, 546 488.132 C 540.775 483.580, 534.659 478.200, 532.408 476.178 C 521.945 466.773, 514.621 460.423, 512.652 459.049 C 511.468 458.223, 509.600 456.602, 508.500 455.447 C 507.400 454.292, 502.225 449.650, 497 445.131 C 491.775 440.612, 486.150 435.646, 484.500 434.096 C 482.850 432.545, 477.225 427.608, 472 423.124 C 466.775 418.640, 461.375 413.942, 460 412.685 C 458.625 411.428, 453.225 406.691, 448 402.158 C 442.775 397.625, 436.925 392.436, 435 390.627 C 433.075 388.817, 428.614 384.898, 425.087 381.918 C 421.560 378.938, 417.685 375.600, 416.477 374.500 C 415.269 373.400, 411.941 370.475, 409.083 368 C 406.224 365.525, 401.150 361.025, 397.806 358 C 394.462 354.975, 390.860 351.893, 389.802 351.150 C 388.744 350.408, 386.087 348.046, 383.898 345.900 C 379.014 341.113, 379.305 341.102, 374.817 346.264 M 1290.170 549.994 C 1287.440 552.472, 1282.394 556.975, 1278.956 560 C 1275.519 563.025, 1271.760 566.335, 1270.603 567.355 C 1269.446 568.374, 1266.308 571.074, 1263.630 573.355 C 1260.951 575.635, 1257.518 578.625, 1256 580 C 1254.483 581.375, 1250.883 584.525, 1248 587 C 1245.117 589.475, 1241.526 592.625, 1240.018 594 C 1238.511 595.375, 1234.947 598.525, 1232.098 601 C 1229.250 603.475, 1225.256 607.008, 1223.224 608.851 C 1221.191 610.694, 1215.026 616.094, 1209.523 620.851 C 1204.020 625.608, 1198.614 630.328, 1197.509 631.340 C 1196.404 632.353, 1189.742 638.203, 1182.703 644.340 L 1169.907 655.500 1213.203 656 L 1256.500 656.500 1256.755 758.250 L 1257.009 860 1155.514 860 L 1054.018 860 1053.759 808.380 L 1053.500 756.760 1048.793 761.130 C 1046.205 763.534, 1042.280 767.075, 1040.072 769 C 1037.864 770.925, 1034.758 773.708, 1033.171 775.184 C 1030.343 777.815, 1017.791 788.752, 1007.112 797.890 C 1004.149 800.425, 1001.224 802.970, 1000.612 803.545 C 999.503 804.587, 981.640 820.374, 975 826.181 C 973.075 827.864, 969.475 831.038, 967 833.233 C 964.525 835.428, 960.700 838.775, 958.500 840.671 C 956.300 842.566, 953.539 844.956, 952.365 845.980 L 950.230 847.843 952.943 853.172 C 954.434 856.102, 956.725 860.525, 958.032 863 C 959.340 865.475, 960.451 867.725, 960.502 868 C 960.553 868.275, 961.596 870.075, 962.818 872 C 964.041 873.925, 965.326 876.625, 965.675 878 C 966.023 879.375, 966.600 880.725, 966.956 881 C 967.313 881.275, 970.439 887.125, 973.902 894 C 977.366 900.875, 980.660 907.063, 981.222 907.750 C 981.785 908.438, 981.978 909, 981.653 909 C 981.327 909, 982.183 910.655, 983.555 912.677 C 984.928 914.699, 986.334 917.512, 986.679 918.927 C 987.025 920.342, 987.600 921.725, 987.956 922 C 988.313 922.275, 991.439 928.125, 994.902 935 C 998.366 941.875, 1001.660 948.063, 1002.222 948.750 C 1002.785 949.438, 1002.978 950, 1002.653 950 C 1002.327 950, 1003.183 951.655, 1004.555 953.677 C 1005.928 955.699, 1007.338 958.497, 1007.688 959.893 C 1008.039 961.290, 1008.723 962.898, 1009.208 963.466 C 1009.694 964.035, 1011.345 966.975, 1012.877 970 L 1015.664 975.500 1160.265 975.753 L 1304.866 976.007 1312.815 968.003 C 1317.188 963.602, 1320.557 960, 1320.303 960 C 1320.049 960, 1325.075 954.712, 1331.472 948.250 C 1337.869 941.788, 1342.967 936.450, 1342.802 936.390 C 1342.521 936.287, 1346.537 932.119, 1375.347 902.610 C 1381.313 896.500, 1386.263 891.309, 1386.347 891.075 C 1386.523 890.587, 1402.812 873.533, 1417.593 858.360 C 1423.145 852.662, 1427.457 848, 1427.177 848 C 1426.896 848, 1431.426 843.275, 1437.243 837.500 C 1443.060 831.725, 1447.565 827, 1447.254 827 C 1446.943 827, 1447.889 825.969, 1449.355 824.709 L 1452.021 822.418 1452.087 755.654 L 1452.154 688.890 1450.827 687.248 C 1450.097 686.345, 1447.714 684.008, 1445.532 682.053 C 1443.349 680.099, 1434.124 671.252, 1425.032 662.393 C 1415.939 653.534, 1400.625 638.644, 1391 629.302 C 1355.022 594.386, 1338.052 577.876, 1322.239 562.407 L 1305.977 546.500 1300.555 545.994 L 1295.134 545.487 1290.170 549.994 M 510 562.912 C 446.421 627.861, 412.610 662.302, 400.500 674.453 L 386.500 688.500 386.757 755.579 L 387.014 822.657 392.257 828.166 C 395.141 831.196, 400.650 837.191, 404.500 841.489 C 408.350 845.786, 413.075 850.980, 415 853.029 C 416.925 855.079, 421.650 860.266, 425.500 864.556 C 432.430 872.277, 438.696 879.168, 444.500 885.450 C 446.150 887.236, 450.425 891.941, 454 895.905 C 457.575 899.869, 462.300 905.037, 464.500 907.388 C 466.700 909.739, 471.425 914.918, 475 918.895 C 478.575 922.873, 483.300 928.031, 485.500 930.359 C 487.700 932.686, 492.650 938.134, 496.500 942.465 C 500.350 946.797, 504.850 951.786, 506.500 953.553 C 508.150 955.319, 512.650 960.274, 516.500 964.565 C 520.350 968.855, 524.372 973.183, 525.439 974.183 L 527.377 976 676.473 976 L 825.569 976 827.489 972.750 C 828.545 970.962, 829.307 969.383, 829.184 969.240 C 828.802 968.797, 832.155 962.598, 833.776 960.750 C 834.619 959.788, 835.027 959, 834.681 959 C 834.335 959, 835.390 956.730, 837.026 953.956 C 838.662 951.182, 840 948.570, 840 948.152 C 840 947.734, 841.340 945.278, 842.978 942.696 C 844.616 940.113, 845.729 938, 845.452 938 C 844.725 938, 847.967 931.813, 849.776 929.750 C 850.619 928.788, 851.019 928, 850.664 928 C 850.309 928, 851.364 925.813, 853.009 923.139 C 854.654 920.466, 856 917.854, 856 917.335 C 856 916.816, 857.340 914.278, 858.978 911.696 C 860.616 909.113, 861.729 907, 861.452 907 C 860.725 907, 863.967 900.813, 865.776 898.750 C 866.619 897.787, 866.960 897, 866.533 897 C 866.105 897, 866.215 896.438, 866.777 895.750 C 867.339 895.063, 869.733 890.675, 872.097 886 C 874.460 881.325, 876.868 877.169, 877.447 876.765 C 878.026 876.361, 878.151 876.024, 877.724 876.015 C 876.788 875.997, 879.631 870.196, 881.776 867.750 C 882.619 866.787, 883.010 866, 882.642 866 C 882.275 866, 883.011 864.313, 884.278 862.250 C 885.545 860.188, 887.417 856.592, 888.438 854.260 L 890.295 850.020 887.421 847.760 C 883.054 844.327, 876.279 838.392, 873.755 835.788 C 872.515 834.509, 869.925 832.292, 868 830.862 C 866.075 829.431, 862.341 826.188, 859.703 823.654 C 857.065 821.120, 854.304 818.699, 853.568 818.273 C 852.832 817.848, 849.308 814.800, 845.736 811.500 C 842.164 808.200, 836.881 803.475, 833.996 801 C 831.112 798.525, 827.345 795.150, 825.626 793.500 C 823.907 791.849, 820.925 789.321, 819 787.880 C 817.075 786.440, 813.342 783.189, 810.705 780.656 C 808.067 778.122, 805.100 775.476, 804.111 774.775 C 803.122 774.074, 799.039 770.575, 795.038 767 C 791.036 763.425, 786.578 759.444, 785.131 758.153 L 782.500 755.807 782.241 807.903 L 781.982 860 680.991 860 L 580 860 580 757.980 L 580 655.960 625.019 656.230 L 670.038 656.500 668.269 655.207 C 665.644 653.290, 657.200 645.937, 653.626 642.457 C 651.907 640.783, 649.431 638.675, 648.123 637.774 C 646.816 636.872, 642.766 633.435, 639.123 630.137 C 635.481 626.838, 628.225 620.430, 623 615.896 C 617.775 611.363, 612.600 606.708, 611.500 605.553 C 610.400 604.398, 608.532 602.777, 607.348 601.951 C 605.379 600.577, 598.055 594.227, 587.592 584.822 C 585.341 582.800, 579.225 577.434, 574 572.899 C 568.775 568.364, 563.594 563.719, 562.486 562.577 C 561.378 561.434, 558.903 559.321, 556.986 557.881 C 555.069 556.440, 551.330 553.178, 548.679 550.631 L 543.857 546 535.179 546.028 L 526.500 546.057 510 562.912 M 618.744 551.745 C 622.176 554.910, 628.654 560.650, 633.139 564.500 C 637.624 568.350, 642.919 573.075, 644.906 575 C 646.893 576.925, 650.089 579.683, 652.009 581.128 C 653.929 582.574, 657.905 586, 660.844 588.743 C 663.784 591.485, 668.481 595.702, 671.283 598.114 C 674.084 600.526, 677.625 603.706, 679.150 605.179 C 680.675 606.652, 682.564 608.227, 683.347 608.679 C 684.130 609.131, 688.032 612.425, 692.017 616 C 708.610 630.884, 711.070 633.069, 713.662 635.233 C 715.156 636.480, 717.833 638.912, 719.611 640.639 C 721.389 642.365, 723.870 644.496, 725.124 645.374 C 726.378 646.253, 730.350 649.665, 733.952 652.958 C 737.553 656.251, 744.766 662.646, 749.980 667.169 C 755.194 671.692, 760.369 676.326, 761.480 677.465 C 762.591 678.605, 765.075 680.715, 767 682.154 C 768.925 683.592, 772.716 686.876, 775.424 689.450 C 778.132 692.024, 781.108 694.663, 782.038 695.315 C 782.967 695.967, 786.985 699.425, 790.965 703 C 798.773 710.013, 799.820 710.934, 808.587 718.500 C 811.773 721.250, 816.058 725.075, 818.109 727 C 820.160 728.925, 823.995 732.300, 826.631 734.500 C 829.268 736.700, 832.869 739.912, 834.634 741.639 C 836.400 743.365, 838.818 745.460, 840.009 746.294 C 841.200 747.128, 845.133 750.441, 848.750 753.655 C 852.366 756.870, 857.868 761.750, 860.977 764.500 C 864.086 767.250, 869.750 772.281, 873.565 775.681 C 877.379 779.080, 882.773 783.805, 885.551 786.181 C 888.329 788.556, 891.929 791.717, 893.551 793.204 C 895.173 794.690, 900.775 799.605, 906 804.125 C 911.225 808.645, 915.860 812.941, 916.300 813.672 C 917.730 816.047, 918.688 815.539, 927.002 808 C 928.518 806.625, 932.106 803.475, 934.975 801 C 937.844 798.525, 941.436 795.375, 942.958 794 C 944.479 792.625, 947.024 790.334, 948.612 788.908 C 951.732 786.109, 1037.515 711.059, 1047.949 702 C 1051.434 698.975, 1055.315 695.600, 1056.574 694.500 C 1057.833 693.400, 1060.941 690.700, 1063.481 688.500 C 1066.021 686.300, 1069.780 682.925, 1071.834 681 C 1073.889 679.075, 1077.804 675.530, 1080.535 673.123 C 1083.266 670.716, 1087.784 666.666, 1090.576 664.123 C 1093.367 661.580, 1097.859 657.700, 1100.558 655.500 C 1103.256 653.300, 1111.210 646.425, 1118.232 640.222 C 1125.254 634.019, 1131 629.129, 1131 629.355 C 1131 629.581, 1132.707 628.131, 1134.794 626.133 C 1136.881 624.135, 1141.445 620.025, 1144.936 617 C 1148.428 613.975, 1152.057 610.825, 1153 610 C 1153.943 609.175, 1157.543 606.025, 1161 603 C 1164.457 599.975, 1168.233 596.686, 1169.392 595.690 C 1178.152 588.171, 1181.601 585.174, 1184 583 C 1185.518 581.625, 1188.951 578.635, 1191.630 576.355 C 1196.746 572, 1197.586 571.270, 1207.958 562.167 C 1211.510 559.050, 1216.685 554.531, 1219.458 552.125 C 1222.231 549.718, 1224.930 547.354, 1225.455 546.870 C 1226.004 546.364, 1180.696 546.099, 1118.704 546.245 L 1011 546.500 1010.915 547.500 C 1010.868 548.050, 1010.362 549.064, 1009.791 549.752 C 1009.219 550.441, 1004.486 559.441, 999.274 569.752 C 994.062 580.064, 989.098 589.288, 988.244 590.250 C 987.389 591.212, 987.017 592, 987.416 592 C 987.816 592, 987.432 592.711, 986.562 593.581 C 985.693 594.450, 985.214 595.537, 985.497 595.995 C 985.781 596.454, 985.631 596.980, 985.165 597.165 C 984.699 597.349, 979.931 606.275, 974.570 617 C 969.209 627.725, 964.118 637.288, 963.256 638.250 C 962.395 639.212, 962.017 640, 962.416 640 C 962.816 640, 962.432 640.711, 961.562 641.581 C 960.693 642.450, 960.214 643.537, 960.497 643.995 C 960.781 644.454, 960.623 644.980, 960.147 645.165 C 959.671 645.349, 954.899 654.275, 949.543 665 C 944.187 675.725, 939.306 685.108, 938.696 685.851 C 938.087 686.594, 937.485 687.899, 937.360 688.751 C 937.235 689.603, 936.541 690.675, 935.816 691.135 C 935.092 691.594, 934.855 691.976, 935.289 691.985 C 935.724 691.993, 935.572 692.563, 934.953 693.250 C 934.334 693.938, 930.138 701.893, 925.628 710.929 C 921.118 719.964, 916.994 727.500, 916.464 727.675 C 915.491 727.996, 887 671.462, 887 669.212 C 887 668.545, 886.627 668, 886.171 668 C 885.386 668, 880.420 658.316, 880.571 657.081 C 880.611 656.762, 880.089 655.946, 879.411 655.268 C 878.734 654.591, 877.383 651.891, 876.411 649.268 C 875.438 646.646, 873.881 643.375, 872.952 642 C 870.900 638.966, 866.819 631, 867.317 631 C 867.513 631, 858.163 611.987, 846.539 588.750 L 825.404 546.500 718.954 546.245 L 612.504 545.991 618.744 551.745 M 625 758.500 L 625 815 681 815 L 737 815 737.063 786.250 C 737.097 770.438, 737.210 748.502, 737.313 737.504 L 737.500 717.507 734.588 715.004 C 732.986 713.627, 729.945 710.862, 727.830 708.860 C 725.715 706.858, 722.879 704.495, 721.528 703.610 L 719.070 702 672.035 702 L 625 702 625 758.500 M 1112 706.196 C 1109.525 708.476, 1105.588 712.089, 1103.250 714.226 L 1099 718.110 1099 766.555 L 1099 815 1155 815 L 1211 815 1211 758.500 L 1211 702 1163.750 702.025 L 1116.500 702.050 1112 706.196 M 916.067 899.750 C 913.724 904.563, 911.106 909.288, 910.248 910.250 C 909.391 911.212, 908.973 912, 909.319 912 C 909.665 912, 908.610 914.270, 906.974 917.044 C 905.338 919.818, 904 922.413, 904 922.810 C 904 923.207, 902.229 926.562, 900.065 930.266 C 897.900 933.970, 896.362 937, 896.646 937 C 896.931 937, 896.186 938.581, 894.992 940.514 C 893.797 942.446, 890.104 949.534, 886.785 956.264 C 883.465 962.994, 880.061 969.288, 879.220 970.250 C 878.378 971.212, 878.040 972, 878.467 972 C 878.895 972, 878.788 972.563, 878.230 973.250 C 873.180 979.473, 865.566 998, 868.059 998 C 868.641 998, 868.864 998.412, 868.553 998.915 C 868.242 999.418, 868.375 999.980, 868.848 1000.165 C 869.322 1000.349, 871.722 1004.550, 874.181 1009.500 C 876.641 1014.450, 881.014 1022.888, 883.898 1028.250 C 886.782 1033.612, 888.815 1038, 888.416 1038 C 888.017 1038, 888.359 1038.787, 889.177 1039.750 C 889.995 1040.713, 892.937 1046, 895.714 1051.500 C 898.492 1057, 901.489 1062.850, 902.376 1064.500 C 903.262 1066.150, 903.990 1067.870, 903.994 1068.321 C 903.997 1068.773, 904.697 1069.840, 905.549 1070.692 C 906.401 1071.544, 907.357 1073.537, 907.674 1075.121 C 907.991 1076.704, 908.670 1078, 909.184 1078 C 909.698 1078, 909.859 1078.419, 909.543 1078.931 C 909.226 1079.443, 909.437 1080.152, 910.010 1080.506 C 910.584 1080.861, 912.891 1084.928, 915.136 1089.545 L 919.219 1097.939 946.027 1044.761 L 972.835 991.582 971.418 988.841 C 970.638 987.333, 970 985.402, 970 984.550 C 970 983.697, 969.523 983, 968.941 983 C 968.359 983, 968.136 982.588, 968.447 982.085 C 968.758 981.582, 968.593 981.020, 968.081 980.835 C 967.569 980.651, 967.004 979.825, 966.825 979 C 966.646 978.175, 966.259 977.275, 965.964 977 C 965.670 976.725, 963.420 972.450, 960.964 967.500 C 958.509 962.550, 956.251 958.275, 955.946 958 C 954.624 956.807, 951.191 949.143, 951.734 948.599 C 952.064 948.270, 951.839 948, 951.234 948 C 950.288 948, 948.559 944.475, 948.782 943 C 948.824 942.725, 948.287 941.825, 947.589 941 C 946.891 940.175, 944.791 936.350, 942.923 932.500 C 941.055 928.650, 938.294 923.362, 936.789 920.750 C 935.284 918.138, 934.335 916, 934.681 916 C 935.027 916, 934.618 915.212, 933.771 914.250 C 931.753 911.954, 927.767 904, 928.635 904 C 929.006 904, 928.635 903.212, 927.809 902.250 C 926.984 901.288, 925.299 898.362, 924.065 895.750 C 921.120 889.515, 921.027 889.562, 916.067 899.750 M 1363.694 979.532 C 1362.151 980.889, 1361.177 982, 1361.529 982 C 1361.881 982, 1357.037 987.180, 1350.763 993.512 C 1344.490 999.844, 1339.541 1005.207, 1339.764 1005.431 C 1339.988 1005.655, 1339.233 1006.340, 1338.087 1006.954 L 1336.002 1008.069 1336.031 1132.994 C 1336.062 1271.764, 1335.346 1261.322, 1344.206 1252.210 C 1347.795 1248.520, 1354.391 1241.724, 1358.865 1237.110 L 1367 1228.720 1367 1102.860 C 1367 1033.637, 1366.888 977.014, 1366.750 977.032 C 1366.612 977.049, 1365.237 978.174, 1363.694 979.532 M 467.762 1103.137 L 468.025 1228.264 471.047 1231.882 C 472.710 1233.872, 476.433 1237.975, 479.322 1241 C 482.211 1244.025, 485.710 1247.850, 487.099 1249.500 C 488.487 1251.150, 490.833 1253.591, 492.312 1254.924 L 495 1257.349 495 1132.827 L 495 1008.306 492.927 1005.903 C 490.341 1002.904, 480.271 991.813, 473 983.954 L 467.500 978.010 467.762 1103.137 M 1149.749 1021.750 L 1007.999 1022.007 963.900 1110.201 L 919.800 1198.395 918.798 1196.603 C 918.247 1195.618, 917.709 1194.225, 917.604 1193.507 C 917.499 1192.789, 916.939 1191.594, 916.360 1190.851 C 915.781 1190.108, 913.555 1185.900, 911.413 1181.500 C 909.272 1177.100, 906.289 1171.362, 904.786 1168.750 C 903.282 1166.138, 902.296 1164, 902.594 1164 C 902.892 1164, 902.193 1162.676, 901.041 1161.058 C 898.860 1157.995, 895.785 1151.304, 896.239 1150.610 C 896.382 1150.390, 895.778 1149.375, 894.895 1148.355 C 894.013 1147.335, 890.706 1141.325, 887.547 1135 C 884.388 1128.675, 881.343 1122.938, 880.779 1122.250 C 880.216 1121.563, 880.022 1121, 880.347 1121 C 880.673 1121, 879.795 1119.313, 878.395 1117.250 C 876.995 1115.188, 875.603 1112.263, 875.300 1110.750 C 874.998 1109.237, 874.330 1108, 873.816 1108 C 873.302 1108, 873.141 1107.581, 873.457 1107.069 C 873.774 1106.557, 873.588 1105.863, 873.044 1105.527 C 872.499 1105.191, 869.291 1099.422, 865.913 1092.708 C 862.535 1085.994, 858.261 1077.800, 856.415 1074.500 C 854.569 1071.200, 853.045 1067.713, 853.029 1066.750 C 853.013 1065.787, 852.523 1065, 851.941 1065 C 851.359 1065, 851.136 1064.588, 851.447 1064.085 C 851.758 1063.582, 851.632 1063.020, 851.168 1062.835 C 850.703 1062.651, 847.668 1057.100, 844.422 1050.500 C 841.177 1043.900, 838.266 1038.275, 837.952 1038 C 836.544 1036.764, 830.145 1023.188, 830.706 1022.627 C 831.051 1022.282, 765.783 1022, 685.667 1022 L 540 1022 540 1164.330 L 540 1306.661 546.250 1312.703 C 556.112 1322.237, 586.738 1351.938, 605.423 1370.088 C 649.805 1413.202, 659.405 1422.545, 673.919 1436.750 L 689.500 1452 917 1451.995 L 1144.500 1451.991 1174.500 1422.351 C 1191 1406.049, 1223.850 1373.539, 1247.500 1350.106 L 1290.500 1307.500 1291 1164.250 C 1291.275 1085.462, 1291.500 1021.111, 1291.500 1021.246 C 1291.500 1021.382, 1227.712 1021.609, 1149.749 1021.750 M 518 1636 L 518 1659 678.500 1659 L 839 1659 839 1636 L 839 1613 678.500 1613 L 518 1613 518 1636 M 998 1636 L 998 1659 1156 1659 L 1314 1659 1314 1636 L 1314 1613 1156 1613 L 998 1613 998 1636" stroke="none" fill="#14add4" fill-rule="evenodd"/><path d="M 422.488 1087 C 422.488 1174.725, 422.606 1210.612, 422.750 1166.750 C 422.894 1122.888, 422.894 1051.112, 422.750 1007.250 C 422.606 963.388, 422.488 999.275, 422.488 1087 M 1336.479 1109.500 C 1336.478 1157.900, 1336.600 1177.846, 1336.750 1153.825 C 1336.899 1129.804, 1336.899 1090.204, 1336.750 1065.825 C 1336.601 1041.446, 1336.479 1061.100, 1336.479 1109.500 M 1336.402 1213 C 1336.402 1221.525, 1336.556 1225.013, 1336.743 1220.750 C 1336.931 1216.487, 1336.931 1209.513, 1336.743 1205.250 C 1336.556 1200.987, 1336.402 1204.475, 1336.402 1213 M 517.430 1636 C 517.430 1648.925, 517.573 1654.213, 517.747 1647.750 C 517.921 1641.287, 517.921 1630.713, 517.747 1624.250 C 517.573 1617.787, 517.430 1623.075, 517.430 1636 M 839.428 1636 C 839.428 1648.375, 839.571 1653.438, 839.747 1647.250 C 839.922 1641.063, 839.922 1630.938, 839.747 1624.750 C 839.571 1618.563, 839.428 1623.625, 839.428 1636 M 1314.428 1636 C 1314.428 1648.375, 1314.571 1653.438, 1314.747 1647.250 C 1314.922 1641.063, 1314.922 1630.938, 1314.747 1624.750 C 1314.571 1618.563, 1314.428 1623.625, 1314.428 1636" stroke="none" fill="#1cacd4" fill-rule="evenodd"/></svg>